<svg xmlns="http://www.w3.org/2000/svg" viewBox="0 0 640 360" role="img" aria-labelledby="title desc">
  <title id="title">Quay wall monitoring preview</title>
  <desc id="desc">Stylized quay wall, water, sensors, and event detection signal.</desc>
  <rect width="640" height="360" fill="#eef6f7"/>
  <rect x="90" y="88" width="180" height="208" fill="#5f6b76"/>
  <path d="M90 122h180M90 158h180M90 194h180M90 230h180M90 266h180" stroke="#dfe5e9" stroke-width="5"/>
  <path d="M280 198c48-26 88 26 136 0s88 26 136 0v98H280z" fill="#1f6f78" opacity=".9"/>
  <circle cx="142" cy="146" r="12" fill="#b4573d"/>
  <circle cx="218" cy="218" r="12" fill="#b4573d"/>
  <path d="M142 146c56-48 180-50 256 8M218 218c64-33 173-28 254 26" fill="none" stroke="#b4573d" stroke-width="4" stroke-dasharray="8 8"/>
  <rect x="396" y="88" width="118" height="70" rx="10" fill="#fff" stroke="#174f56" stroke-width="4"/>
  <path d="M418 123h16l10-18 17 37 12-19h20" fill="none" stroke="#174f56" stroke-width="5" stroke-linecap="round" stroke-linejoin="round"/>
</svg>
